<?xml version="1.0" encoding="UTF-8"?>
<svg xmlns="http://www.w3.org/2000/svg" xmlns:xlink="http://www.w3.org/1999/xlink" width="464px" height="97px" viewBox="0 0 464 97" version="1.1">
  <!-- Generator: Sketch 63.1 (92452) - https://sketch.com -->
  <title>Group 2</title>
  <desc>Created with Sketch.</desc>
  <defs>
    <linearGradient x1="0.00450247636%" y1="50.0015877%" x2="100.01801%" y2="50.0015877%" id="linearGradient-1">
      <stop stop-color="#5CE6CD" offset="0%"></stop>
      <stop stop-color="#21CFF6" offset="100%"></stop>
    </linearGradient>
    <linearGradient x1="84.7503834%" y1="82.8176489%" x2="17.998397%" y2="19.7236404%" id="linearGradient-2">
      <stop stop-color="#5CE6CD" offset="0%"></stop>
      <stop stop-color="#21CFF6" offset="100%"></stop>
    </linearGradient>
  </defs>
  <g id="Page-1" stroke="none" stroke-width="1" fill="none" fill-rule="evenodd">
    <g id="Group-2" fill-rule="nonzero">
      <g id="Group" transform="translate(121.000000, 3.000000)">
        <polygon id="Path" fill="#000000" points="0.016 57.85081 0.016 0.88373 7.344 0.88373 7.344 57.86221 0.016 57.86221"></polygon>
        <polygon id="Path" fill="#000000" points="31.418 57.85081 31.418 0.88373 37.852 0.88373 73.086 45.16131 73.086 0.88373 80.165 0.88373 80.165 57.86221 73.732 57.86221 38.497 13.57331 38.497 57.85081"></polygon>
        <path d="M134.986,14.79691 C134.012,10.48021 128.961,7.06991 122.697,7.06991 C119.356,7.06991 116.514,7.88561 114.237,9.59651 C112.04,11.22801 110.896,13.25611 110.896,15.78261 C110.896,18.46781 112.198,20.50721 115.449,22.12741 C118.699,23.67961 120.987,24.32541 126.435,25.70771 C130.263,26.68211 132.29,27.16931 135.79,28.88011 C140.751,31.23671 143.684,34.98691 144.013,41.66031 C144.013,46.79281 142.065,50.86021 138.157,54.03261 C134.329,57.20501 129.368,58.75721 123.354,58.75721 C117.907,58.75721 113.184,57.45431 109.356,54.92771 C105.527,52.40111 103.092,49.14941 102.028,45.16131 L109.356,42.96321 C110.25,47.84651 115.947,51.67601 123.354,51.67601 C127.182,51.67601 130.354,50.78091 132.879,49.07011 C135.405,47.28001 136.707,45.00261 136.707,42.23811 C136.707,39.39431 135.326,37.27561 132.641,35.89331 C129.957,34.51111 128.009,33.77461 124.419,32.87961 L120.999,31.98451 L117.827,31.01011 L114.486,29.86581 C113.841,29.61651 112.855,29.12931 111.553,28.56281 C109.027,27.33921 108.461,26.61411 106.751,25.06191 C104.395,22.70531 103.817,20.09941 103.5,16.26981 C103.5,11.46591 105.29,7.55711 108.869,4.55461 C112.448,1.54088 117.001,0 122.618,0 C127.579,0 131.894,1.22364 135.394,3.58031 C138.973,5.93691 141.249,9.03001 142.223,12.70091 L134.986,14.79691 Z" id="Path" fill="#000000"></path>
        <path d="M204.079,5.92561 C200.579,2.58321 196.185,0.88373 190.896,0.88373 L165.922,0.88373 L165.922,7.71571 L190.896,7.71571 C197.08,7.71571 201.723,12.27031 201.723,18.45651 C201.723,21.47031 200.67,24.07621 198.631,26.11561 C196.593,28.15501 193.999,29.20871 190.896,29.20871 L165.922,29.20871 L165.922,57.86221 L173.25,57.86221 L173.25,36.04061 L190.907,36.04061 C196.196,36.04061 200.591,34.32981 204.09,30.99881 C207.59,27.65641 209.379,23.43041 209.379,18.46781 C209.368,13.49401 207.579,9.26791 204.079,5.92561 Z" id="Path" fill="#000000"></path>
        <path d="M256.555,0.88373 C261.844,0.88373 266.238,2.59451 269.738,5.92561 C273.238,9.26791 275.027,13.49401 275.027,18.45651 C275.027,26.18351 270.304,32.46031 263.146,34.97561 L277.145,57.85081 L268.922,57.85081 L255.581,36.04061 L238.082,36.04061 L238.082,57.85081 L230.754,57.85081 L230.754,0.88373 L256.555,0.88373 Z M238.082,7.71571 L238.082,29.20861 L256.555,29.20861 C259.647,29.20861 262.251,28.15501 264.279,26.11561 C266.317,24.07621 267.371,21.48161 267.371,18.46781 C267.371,12.28171 262.727,7.72701 256.555,7.72701 L238.082,7.72701 L238.082,7.71571 Z" id="Shape" fill="#000000"></path>
        <polygon id="Path" fill="#000000" points="299.121 0.88373 290.661 0.88373 312.791 34.65841 312.791 57.85081 320.198 57.85081 320.119 33.21951"></polygon>
        <polygon id="Path" fill="#000000" points="9.027 78.87931 9.027 80.71471 1.982 80.71471 1.982 84.04571 8.087 84.04571 8.087 85.88121 1.982 85.88121 1.982 91.26291 -7.10542736e-15 91.26291 -7.10542736e-15 78.87931"></polygon>
        <polygon id="Path" fill="#000000" points="27.254 78.87931 27.254 80.71471 20.209 80.71471 20.209 84.07971 26.314 84.07971 26.314 85.91521 20.209 85.91521 20.209 89.41611 27.333 89.41611 27.333 91.25161 18.227 91.25161 18.227 78.87931"></polygon>
        <polygon id="Path" fill="#000000" points="45.66 78.87931 45.66 80.71471 38.615 80.71471 38.615 84.07971 44.72 84.07971 44.72 85.91521 38.615 85.91521 38.615 89.41611 45.739 89.41611 45.739 91.25161 36.633 91.25161 36.633 78.87931"></polygon>
        <polygon id="Path" fill="#000000" points="57.018 78.87931 57.018 89.42751 63.496 89.42751 63.496 91.26291 55.047 91.26291 55.047 78.87931"></polygon>
        <polygon id="Path" fill="#000000" points="83.973 80.72591 83.973 78.89051 94.687 78.89051 94.687 80.72591 90.316 80.72591 90.316 91.27411 88.334 91.27411 88.334 80.72591"></polygon>
        <polygon id="Path" fill="#000000" points="103.793 91.26291 103.793 78.87931 105.775 78.87931 105.775 84.07971 112.48 84.07971 112.48 78.87931 114.474 78.87931 114.474 91.26291 112.48 91.26291 112.48 85.91521 105.775 85.91521 105.775 91.26291"></polygon>
        <polygon id="Path" fill="#000000" points="133.32 78.87931 133.32 80.71471 126.275 80.71471 126.275 84.07971 132.38 84.07971 132.38 85.91521 126.275 85.91521 126.275 89.41611 133.399 89.41611 133.399 91.25161 124.293 91.25161 124.293 78.87931"></polygon>
        <polygon id="Path" fill="#000000" points="158.073 91.26291 153.848 78.87931 155.887 78.87931 158.854 88.10191 161.754 78.87931 163.362 78.87931 166.261 88.10191 169.217 78.87931 171.256 78.87931 167.031 91.26291 165.423 91.26291 162.558 82.31221 159.692 91.26291"></polygon>
        <polygon id="Path" fill="#000000" points="189.14 78.87931 189.14 80.71471 182.096 80.71471 182.096 84.07971 188.2 84.07971 188.2 85.91521 182.096 85.91521 182.096 89.41611 189.22 89.41611 189.22 91.25161 180.114 91.25161 180.114 78.87931"></polygon>
        <path d="M198.5,91.26291 L198.5,78.87931 L204.424,78.87931 C205.466,78.87931 206.349,79.19651 207.063,79.83101 C207.765,80.45411 208.127,81.24721 208.127,82.18761 C208.127,83.23001 207.686,84.07971 206.814,84.73691 C207.969,85.36001 208.671,86.47041 208.671,87.76201 C208.671,88.77031 208.297,89.59741 207.561,90.27721 C206.814,90.93441 205.896,91.26291 204.786,91.26291 L198.5,91.26291 L198.5,91.26291 Z M200.482,80.72601 L200.482,83.94381 L204.424,83.94381 C205.364,83.94381 206.055,83.25261 206.055,82.33491 C206.055,81.41721 205.364,80.72601 204.424,80.72601 L200.482,80.72601 Z M200.482,85.77921 L200.482,89.42751 L204.775,89.42751 C205.817,89.42751 206.61,88.64571 206.61,87.60331 C206.61,86.56101 205.817,85.77921 204.775,85.77921 L200.482,85.77921 Z" id="Shape" fill="#000000"></path>
        <polygon id="Path" fill="url(#linearGradient-1)" points="333.934 0.88373 320.184 22.30871 324.261 28.59681 342.394 0.88373"></polygon>
        <polygon id="Path" fill="#000000" points="173.397 7.71561 165.922 7.71561 165.922 35.56471 173.397 35.56471"></polygon>
      </g>
      <path d="M87.7156002,20.3841622 C81.9961002,12.3398622 73.9547002,6.26704223 64.8488002,2.86805223 C46.0819002,-4.09987777 23.9400002,1.97298223 11.2550002,17.3477622 C4.82198018,25.2107622 0.891928178,34.6825622 0.178401178,44.6869622 C-0.716337822,54.5213622 1.78667018,64.7070622 6.96256018,73.2838622 C11.9686002,81.5093622 19.4663002,88.2960622 28.2211002,92.2275622 C37.5083002,96.5215622 48.0526002,97.5866622 58.0533002,95.6265622 C77.3525002,91.6950622 92.8915002,75.4251622 95.9268002,55.7676622 C96.2892002,53.2637622 96.4591638,50.7598622 96.4591638,48.2672622 C96.4705002,38.4328622 93.4238002,28.4284622 87.7156002,20.3841622 Z M78.9608002,18.7753622 C84.4991002,24.4969622 88.2479002,31.6461622 89.8562002,39.6791622 C86.1073002,41.6505622 82.3585002,43.6106622 78.5983002,45.4007622 C71.6330002,48.9696622 64.8375002,52.3686622 57.8721002,55.9489622 C55.3691002,57.1952622 52.6962002,58.6341622 50.1932002,59.8804622 C43.5789002,63.2794622 36.9760002,66.6671622 30.3617002,70.0660622 C29.4670002,70.5986622 28.3910002,70.9611622 27.5076002,71.4936622 C23.3963002,73.6350622 25.1858002,68.8084622 25.5369002,68.0946622 C28.9346002,61.4779622 32.3211002,54.6913622 35.7188002,48.0746622 C36.9646002,45.5707622 38.4030002,42.8968622 39.6489002,40.3929622 C43.0466002,33.7762622 46.4330002,27.1708622 49.6495002,20.5541622 C51.9713002,15.9088622 54.4743002,11.2635622 56.7961002,6.61827223 C65.3811002,8.40841223 73.0600002,12.5211622 78.9608002,18.7753622 Z M11.7874002,26.1058622 C14.1092002,22.3555622 16.6122002,19.3191622 20.0099002,16.2713622 C23.0452002,13.5861622 26.7941002,11.0935622 30.7241002,9.30347223 C36.7948002,6.44832223 44.1226002,5.19069223 50.9067002,5.73453223 C49.2984002,8.77096223 47.6902002,11.9886622 46.0819002,15.0250622 C42.5143002,21.9930622 39.1165002,28.7910622 35.5376002,35.7589622 C34.2917002,38.2628622 32.8534002,40.9367622 31.6075002,43.4406622 C28.2098002,50.0573622 24.8234002,56.6627622 21.6068002,63.2794622 C19.6361002,67.3922622 17.4956002,71.5050622 15.5362002,75.4365622 L15.3550002,75.2552622 C3.92725018,61.6705622 2.50019018,41.4692622 11.7874002,26.1058622 Z M82.7096002,73.2838622 C80.5690002,76.3202622 76.9901002,79.9005622 74.1360002,82.2231622 C70.7382002,84.9083622 66.6383002,87.0497622 62.8781002,88.4773622 C54.3045002,91.5137622 45.1872002,91.8762622 36.4437002,89.3723622 C30.7241002,87.7635622 25.5482002,84.9083622 20.9046002,81.1468622 C24.1212002,79.5379622 27.3377002,77.9291622 30.3730002,76.3202622 C37.3384002,72.7513622 44.1339002,69.3523622 51.0993002,65.7720622 C53.6023002,64.5257622 56.2752002,63.0868622 58.7782002,61.8405622 C65.3924002,58.4415622 71.9954002,55.0538622 78.6097002,51.6548622 C82.5397002,49.6834622 86.6510002,47.7233622 90.5810002,45.5820622 C90.5810002,46.4770622 90.5810002,47.3721622 90.7623002,48.2672622 C90.7509002,57.1952622 88.0667002,65.7720622 82.7096002,73.2838622 Z" id="Shape" fill="url(#linearGradient-2)"></path>
    </g>
  </g>
</svg>
